<?xml version="1.0" encoding="UTF-8"?>
<svg viewBox="0 0 50 50" xmlns="http://www.w3.org/2000/svg">
 <g transform="matrix(.60978 0 0 .60978 2.9206 -393.72)" enable-background="new" stroke="#fff">
  <path d="m33.031 653.16c-2.5446 0.22036-4.7333 2.4882-5.1562 5.5312l-0.46875 3.4688c-0.09414 0.16672-0.1985 0.32272-0.28125 0.5l-9.0625 19.438c-0.36674 0.78567-0.58123 1.6097-0.65625 2.4062h-4.9062c-3.2126 0-5.8125 2.5687-5.8125 5.7812v18.344c0 3.2126 2.6 5.8125 5.8125 5.8125h8.5312c1.9528 1.767 4.5218 2.8438 7.375 2.8438h11.625c6.1036 0 11-4.8964 11-11v-18.906c0-6.1036-4.8964-11-11-11h-3.5938l2.2188-16.125c0.4834-3.4777-1.5103-6.6219-4.5-7.0625-0.37371-0.0551-0.76148-0.0627-1.125-0.0312z" stroke-width="1.7432"/>
  <path transform="rotate(90)" d="m681-62.454h0.71231a4.6343 4.6343 0 0 1 4.6343 4.6343v15.686a4.6343 4.6343 0 0 1 -4.6343 4.6343h-0.71231a4.6343 4.6343 0 0 1 -4.6343 -4.6343v-15.686a4.6343 4.6343 0 0 1 4.6343 -4.6343" stroke-width="1.7716"/>
  <path transform="rotate(90)" d="m691.62-66.302a4.9905 4.9905 0 0 1 4.9905 4.9905v18.821a4.9905 4.9905 0 0 1 -4.9905 4.9905 4.9905 4.9905 0 0 1 -4.9905 -4.9905v-18.821a4.9905 4.9905 0 0 1 4.9905 -4.9905" stroke-width="1.7716"/>
  <path transform="rotate(90)" d="m701.89-63.114a4.9905 4.9905 0 0 1 4.9905 4.9905v15.633a4.9905 4.9905 0 0 1 -4.9905 4.9905 4.9905 4.9905 0 0 1 -4.9905 -4.9905v-15.633a4.9905 4.9905 0 0 1 4.9905 -4.9905" stroke-width="1.7716"/>
  <path transform="rotate(90)" d="m712.16-59.706a4.9905 4.9905 0 0 1 4.9905 4.9905v12.225a4.9905 4.9905 0 0 1 -4.9905 4.9905 4.9905 4.9905 0 0 1 -4.9905 -4.9905v-12.225a4.9905 4.9905 0 0 1 4.9905 -4.9905" stroke-width="1.7716"/>
 </g>
</svg>
